<?xml version="1.0" ?>
<svg width="64px" height="64px" viewBox="0 0 64 64"
    xmlns="http://www.w3.org/2000/svg">
    <defs>
        <style>.cls-3{fill:#f57c00;}</style>
    </defs>
    <title/>
    <g data-name="outline color" id="outline_color">
        <path class="cls-3" d="M47.8,60H42.2a1,1,0,0,1-1-1V55.6a9,9,0,0,1-1-.42l-2.4,2.41a1,1,0,0,1-.71.29h0a1,1,0,0,1-.71-.29l-4-4a1,1,0,0,1,0-1.42l2.41-2.4a9,9,0,0,1-.42-1H31a1,1,0,0,1-1-1V42.2a1,1,0,0,1,1-1h3.4a9,9,0,0,1,.42-1l-2.41-2.4a1,1,0,0,1,0-1.42l4-4a1,1,0,0,1,1.42,0l2.4,2.41a9,9,0,0,1,1-.42V31a1,1,0,0,1,1-1h5.6a1,1,0,0,1,1,1v3.4a9,9,0,0,1,1,.42l2.4-2.41a1,1,0,0,1,.71-.29h0a1,1,0,0,1,.71.29l4,4a1,1,0,0,1,0,1.42l-2.41,2.4a9,9,0,0,1,.42,1H59a1,1,0,0,1,1,1v5.6a1,1,0,0,1-1,1H55.6a9,9,0,0,1-.42,1l2.41,2.4a1,1,0,0,1,0,1.42l-4,4a1,1,0,0,1-1.42,0l-2.4-2.41a9,9,0,0,1-1,.42V59A1,1,0,0,1,47.8,60Zm-4.6-2h3.6V54.87a1,1,0,0,1,.73-1,9.38,9.38,0,0,0,2-.82,1,1,0,0,1,1.2.16l2.21,2.22,2.54-2.55-2.21-2.21a1,1,0,0,1-.16-1.2,9.38,9.38,0,0,0,.82-2,1,1,0,0,1,1-.73H58V43.2H54.87a1,1,0,0,1-1-.73,9.38,9.38,0,0,0-.82-2,1,1,0,0,1,.16-1.2l2.21-2.21-2.54-2.55-2.21,2.22a1,1,0,0,1-1.2.16,9.38,9.38,0,0,0-2-.82,1,1,0,0,1-.73-1V32H43.2v3.13a1,1,0,0,1-.73,1,9.38,9.38,0,0,0-2,.82,1,1,0,0,1-1.2-.16l-2.21-2.22-2.54,2.55,2.21,2.21a1,1,0,0,1,.16,1.2,9.38,9.38,0,0,0-.82,2,1,1,0,0,1-1,.73H32v3.6h3.13a1,1,0,0,1,1,.73,9.38,9.38,0,0,0,.82,2,1,1,0,0,1-.16,1.2l-2.21,2.21,2.54,2.55,2.21-2.22a1,1,0,0,1,1.2-.16,9.38,9.38,0,0,0,2,.82,1,1,0,0,1,.73,1Z"/>
        <path class="cls-3" d="M45,52a7,7,0,1,1,7-7A7,7,0,0,1,45,52Zm0-12a5,5,0,1,0,5,5A5,5,0,0,0,45,40Z"/>
    </g>
</svg>