<?xml version="1.0" standalone="no"?>
<!DOCTYPE svg PUBLIC "-//W3C//DTD SVG 20010904//EN"
 "http://www.w3.org/TR/2001/REC-SVG-20010904/DTD/svg10.dtd">
<svg version="1.0" xmlns="http://www.w3.org/2000/svg"
 width="360.000000pt" height="360.000000pt" viewBox="0 0 360.000000 360.000000"
 preserveAspectRatio="xMidYMid meet">

<g transform="translate(0.000000,360.000000) scale(0.100000,-0.100000)"
fill="#000000" stroke="none">
<path d="M470 3543 c-43 -7 -143 -45 -182 -69 -99 -63 -174 -160 -208 -272
-20 -63 -20 -96 -20 -1396 0 -1190 2 -1338 16 -1387 50 -172 181 -300 351
-344 84 -22 2669 -22 2752 0 177 47 314 188 356 366 13 55 15 239 15 1355 0
891 -3 1309 -11 1349 -35 189 -184 346 -370 390 -56 13 -237 15 -1369 13 -718
0 -1316 -3 -1330 -5z m2712 -216 c65 -32 121 -89 152 -156 l21 -46 0 -1320 0
-1320 -21 -46 c-30 -64 -88 -125 -148 -157 l-51 -27 -1330 0 -1330 0 -57 28
c-69 34 -121 91 -148 164 -20 54 -20 71 -18 1371 l3 1317 24 49 c41 83 117
143 208 165 22 5 598 9 1338 8 l1300 -2 57 -28z"/>
<path d="M1285 2821 c-93 -42 -105 -81 -105 -324 0 -209 9 -262 57 -344 40
-68 98 -112 320 -243 117 -69 213 -127 212 -130 0 -3 -99 -63 -220 -134 -241
-142 -290 -184 -337 -284 -26 -55 -27 -64 -30 -267 -4 -220 2 -261 39 -309 46
-58 148 -77 219 -41 66 34 995 587 1014 604 50 43 70 145 40 204 -27 53 -52
73 -180 149 -68 40 -124 75 -124 78 0 3 55 38 123 78 128 75 154 96 181 149
35 69 9 167 -56 216 -57 42 -991 593 -1027 605 -47 16 -79 15 -126 -7z m773
-609 c117 -70 211 -130 210 -134 -2 -4 -67 -45 -146 -92 l-143 -85 -247 146
c-302 178 -298 176 -322 223 -17 34 -20 60 -20 189 l0 150 228 -136 c125 -74
323 -192 440 -261z m70 -640 c78 -46 142 -87 142 -90 0 -6 -847 -512 -872
-521 -6 -2 -8 55 -6 157 l3 160 30 36 c20 24 119 89 290 191 143 84 263 153
266 152 3 -1 69 -40 147 -85z"/>
</g>
</svg>
