<?xml version="1.0" standalone="no"?>
<!DOCTYPE svg PUBLIC "-//W3C//DTD SVG 20010904//EN"
 "http://www.w3.org/TR/2001/REC-SVG-20010904/DTD/svg10.dtd">
<svg version="1.0" xmlns="http://www.w3.org/2000/svg"
 width="128.000000pt" height="128.000000pt" viewBox="0 0 128.000000 128.000000"
 preserveAspectRatio="xMidYMid meet">

<g transform="translate(0.000000,128.000000) scale(0.100000,-0.100000)"
fill="#000000" stroke="none">
<path d="M325 1221 c-11 -5 -29 -19 -40 -31 -18 -20 -20 -36 -20 -154 0 -130
1 -134 30 -182 26 -42 48 -60 158 -125 70 -42 130 -78 133 -82 3 -3 -45 -35
-108 -72 -159 -95 -168 -102 -195 -162 -23 -49 -24 -63 -21 -172 3 -111 5
-121 28 -146 21 -23 32 -26 70 -23 38 3 89 31 327 177 186 115 285 182 292
198 29 62 5 100 -98 158 -39 22 -71 42 -71 45 0 3 34 25 75 49 110 63 131 114
73 175 -38 39 -544 342 -585 350 -16 3 -37 1 -48 -3z m312 -269 c127 -75 230
-140 227 -143 -2 -4 -40 -28 -84 -54 l-80 -47 -151 89 c-101 59 -155 97 -165
115 -9 17 -14 58 -14 109 0 73 2 80 18 74 9 -3 121 -68 249 -143z m161 -429
c50 -32 70 -49 60 -54 -7 -4 -116 -68 -242 -143 -127 -75 -233 -136 -238 -136
-13 0 -9 156 4 185 14 31 304 208 327 200 8 -3 48 -26 89 -52z"/>
</g>
</svg>
