<?xml version="1.0" standalone="no"?>
<!DOCTYPE svg PUBLIC "-//W3C//DTD SVG 20010904//EN"
 "http://www.w3.org/TR/2001/REC-SVG-20010904/DTD/svg10.dtd">
<svg version="1.0" xmlns="http://www.w3.org/2000/svg"
 width="64.000000pt" height="56.000000pt" viewBox="0 0 64.000000 56.000000"
 preserveAspectRatio="xMidYMid meet">

<g transform="translate(0.000000,56.000000) scale(0.100000,-0.100000)"
fill="#000000" stroke="none">
<path d="M243 535 c-28 -12 -33 -19 -33 -48 0 -41 -13 -54 -60 -59 -48 -4 -44
-22 6 -26 35 -3 45 1 63 24 11 15 21 39 21 55 0 38 31 47 66 20 34 -27 72 -27
100 0 17 16 30 20 48 15 22 -5 26 -12 26 -40 0 -41 37 -76 81 -76 39 0 50 -39
20 -71 -27 -29 -27 -67 0 -95 16 -17 20 -30 15 -48 -5 -22 -12 -26 -40 -26
-41 0 -76 -37 -76 -81 0 -38 -31 -47 -66 -20 -34 27 -72 27 -100 0 -17 -16
-30 -20 -48 -15 -22 5 -26 12 -26 40 0 54 -60 91 -114 70 -25 -10 -8 -24 28
-24 40 0 53 -14 58 -60 3 -31 8 -37 45 -50 40 -13 43 -13 66 8 29 27 58 28 82
2 22 -24 36 -25 75 -5 24 12 30 22 30 48 0 42 15 57 57 57 26 0 36 6 48 30 20
39 19 63 -5 85 -26 23 -26 57 0 80 24 22 25 36 5 75 -13 24 -22 30 -49 30 -40
0 -53 14 -58 60 -3 31 -8 37 -45 50 -41 14 -44 13 -63 -8 -26 -27 -61 -28 -85
-2 -21 23 -29 24 -72 5z"/>
<path d="M12 408 c-28 -28 5 -98 58 -121 13 -6 13 -8 0 -14 -30 -13 -70 -62
-70 -86 0 -48 21 -49 93 -6 36 22 69 45 73 51 4 6 -3 20 -16 30 -20 16 -21 21
-9 29 7 5 17 9 22 9 4 0 7 7 7 15 0 8 -24 30 -52 49 -84 53 -93 57 -106 44z
m41 -30 c12 -6 40 -22 61 -36 l39 -24 -24 -13 c-21 -12 -29 -11 -59 8 -40 24
-50 35 -50 60 0 20 4 21 33 5z m91 -139 c-8 -14 -115 -71 -121 -66 -14 14 10
54 44 73 29 17 42 19 60 11 12 -5 20 -13 17 -18z"/>
</g>
</svg>
