<?xml version="1.0" standalone="no"?>
<!DOCTYPE svg PUBLIC "-//W3C//DTD SVG 20010904//EN"
 "http://www.w3.org/TR/2001/REC-SVG-20010904/DTD/svg10.dtd">
<svg version="1.0" xmlns="http://www.w3.org/2000/svg"
 width="128.000000pt" height="128.000000pt" viewBox="0 0 128.000000 128.000000"
 preserveAspectRatio="xMidYMid meet">

<g transform="translate(0.000000,128.000000) scale(0.100000,-0.100000)"
fill="#000000" stroke="none">
<path d="M227 1022 c-27 -28 -28 -31 -25 -138 2 -89 6 -109 18 -109 10 0 17
13 20 35 l5 35 458 3 457 2 0 -285 0 -285 -457 2 -458 3 -5 30 c-7 40 -34 40
-38 0 -2 -23 4 -37 26 -58 l28 -27 454 2 454 3 23 34 c23 34 23 36 23 371 0
335 0 337 -23 371 l-23 34 -455 3 -455 2 -27 -28z m933 -77 l0 -55 -460 0
-460 0 0 48 c0 27 3 52 7 55 3 4 210 7 460 7 l453 0 0 -55z"/>
<path d="M902 958 c-7 -9 -6 -17 3 -25 10 -10 16 -9 24 1 8 10 8 16 -3 25 -10
8 -16 8 -24 -1z"/>
<path d="M981 956 c-9 -10 -8 -16 3 -25 10 -9 16 -8 25 3 9 10 8 16 -3 25 -10
9 -16 8 -25 -3z"/>
<path d="M1055 960 c-4 -6 -1 -17 5 -25 9 -11 15 -12 25 -2 9 8 10 16 3 25
-13 15 -25 15 -33 2z"/>
<path d="M86 755 c-20 -54 0 -114 48 -140 20 -11 36 -23 36 -27 0 -5 7 -8 15
-8 21 0 19 -36 -2 -44 -37 -12 -78 -43 -91 -67 -7 -13 -11 -42 -10 -64 3 -37
6 -40 34 -43 19 -2 36 3 44 12 7 9 16 16 21 16 13 0 146 86 154 100 8 13 -22
50 -42 50 -7 0 -13 9 -13 20 0 11 4 20 10 20 14 0 50 32 50 45 0 11 -28 31
-132 94 -83 50 -113 59 -122 36z m108 -55 c35 -22 66 -40 70 -40 10 0 50 -39
45 -44 -13 -13 -79 -44 -79 -38 0 4 -18 16 -41 26 -63 31 -89 60 -89 101 0 46
14 45 94 -5z m80 -171 c20 -12 36 -25 36 -29 0 -9 -145 -100 -160 -100 -4 0
-10 -5 -12 -12 -2 -6 -12 -9 -21 -5 -20 8 -23 55 -4 80 9 13 102 77 124 86 1
1 18 -8 37 -20z"/>
</g>
</svg>
