<?xml version="1.0" encoding="iso-8859-1"?>
<!-- Generator: Adobe Illustrator 19.0.0, SVG Export Plug-In . SVG Version: 6.00 Build 0)  -->
<svg version="1.1" id="Layer_1" xmlns="http://www.w3.org/2000/svg" xmlns:xlink="http://www.w3.org/1999/xlink" x="0px" y="0px"
	 viewBox="0 0 392.533 392.533" style="enable-background:new 0 0 392.533 392.533;" xml:space="preserve">
<g>
	<path style="fill:#56ACE0;" d="M196.267,54.238c8.986,0,16.226-7.24,16.226-16.226s-7.24-16.226-16.226-16.226
		c-8.986,0-16.226,7.24-16.226,16.226S187.281,54.238,196.267,54.238z"/>
	<path style="fill:#56ACE0;" d="M339.135,330.861l-15.386,27.216c-4.202,7.434-14.869,7.434-19.006,0l-15.386-27.216
		c-15.903,7.758-27.216,22.497-30.578,39.887h110.869C366.352,353.358,355.038,338.618,339.135,330.861z"/>
</g>
<g>
	<path style="fill:#FFC10D;" d="M221.156,109.899l-15.386,27.216c-4.202,7.434-14.869,7.434-19.006,0l-15.386-27.216
		c-15.903,7.758-27.216,22.497-30.578,39.887h110.933l0,0C248.436,132.331,237.123,117.657,221.156,109.899z"/>
	<circle style="fill:#FFC10D;" cx="314.246" cy="258.909" r="16.226"/>
	<path style="fill:#FFC10D;" d="M78.287,242.683c-8.986,0-16.226,7.24-16.226,16.226c0,8.986,7.37,16.226,16.226,16.226
		c8.986,0,16.226-7.24,16.226-16.226C94.513,249.988,87.208,242.683,78.287,242.683z"/>
</g>
<path style="fill:#56ACE0;" d="M103.176,330.861L87.79,358.077c-4.202,7.434-14.804,7.434-19.006,0l-15.386-27.216
	c-15.903,7.758-27.216,22.497-30.578,39.887h110.869C130.327,353.358,119.143,338.618,103.176,330.861z"/>
<g>
	<path style="fill:#194F82;" d="M196.267,76.024c20.945,0,38.012-17.067,38.012-38.012S217.212,0,196.267,0
		s-38.012,17.067-38.012,38.012S175.321,76.024,196.267,76.024z M196.267,21.786c8.986,0,16.226,7.24,16.226,16.226
		s-7.24,16.226-16.226,16.226c-8.986,0-16.226-7.24-16.226-16.226S187.281,21.786,196.267,21.786z"/>
	<path style="fill:#194F82;" d="M128.905,171.572h56.501v76.477h-41.956c-6.012,0-10.925,4.848-10.925,10.925
		c0,6.012,4.848,10.925,10.925,10.925h105.697c6.012,0,10.925-4.848,10.925-10.925c0-6.012-4.848-10.925-10.925-10.925h-41.956
		v-76.477h56.501c6.012,0,10.925-4.848,10.925-10.925c0-34.521-22.109-64.582-55.014-74.796c-4.848-1.552-10.214,0.517-12.735,5.042
		l-10.602,18.683l-10.602-18.618c-2.521-4.461-7.822-6.594-12.735-5.042c-32.905,10.214-55.014,40.275-55.014,74.796
		C117.98,166.659,122.828,171.572,128.905,171.572z M171.378,109.899l15.386,27.216c4.202,7.434,14.804,7.434,19.006,0
		l15.386-27.216c15.903,7.758,27.216,22.497,30.578,39.887H140.8C144.162,132.461,155.475,117.657,171.378,109.899z"/>
	<path style="fill:#194F82;" d="M101.624,306.812c-4.848-1.552-10.214,0.517-12.735,5.042l-10.602,18.618l-10.602-18.618
		c-2.521-4.461-7.822-6.594-12.735-5.042C22.109,317.026,0,347.087,0,381.608c0,6.012,4.848,10.925,10.925,10.925h134.788
		c6.012,0,10.925-4.848,10.925-10.925C156.574,347.087,134.465,317.026,101.624,306.812z M22.885,370.747
		c3.297-17.39,14.61-32.065,30.578-39.887l15.321,27.216c4.202,7.434,14.869,7.434,19.006,0l15.386-27.216
		c15.903,7.758,27.216,22.497,30.578,39.887H22.885z"/>
	<path style="fill:#194F82;" d="M337.519,306.812c-4.848-1.552-10.214,0.517-12.735,5.042l-10.602,18.618l-10.537-18.618
		c-2.521-4.461-7.822-6.594-12.735-5.042c-32.905,10.214-55.014,40.275-55.014,74.796c0,6.012,4.848,10.925,10.925,10.925h134.788
		c6.012,0,10.925-4.848,10.925-10.925C392.533,347.087,370.424,317.026,337.519,306.812z M258.78,370.747
		c3.297-17.39,14.61-32.065,30.578-39.887l15.386,27.216c4.202,7.434,14.869,7.434,19.006,0l15.386-27.216
		c15.903,7.758,27.216,22.497,30.578,39.887H258.78z"/>
	<path style="fill:#194F82;" d="M314.246,296.921c20.945,0,38.012-17.067,38.012-38.012c0-20.945-17.067-37.947-38.012-37.947
		s-38.012,17.067-38.012,38.012C276.234,279.984,293.301,296.921,314.246,296.921z M314.246,242.812
		c8.986,0,16.226,7.24,16.226,16.226c0,8.986-7.24,16.226-16.226,16.226c-8.986,0-16.226-7.24-16.226-16.226
		C298.02,250.053,305.325,242.812,314.246,242.812z"/>
	<path style="fill:#194F82;" d="M78.287,296.921c20.945,0,38.012-17.067,38.012-38.012c0-20.945-17.067-37.947-38.012-37.947
		s-38.012,17.002-38.012,37.947C40.275,279.855,57.341,296.921,78.287,296.921z M78.287,242.812c8.986,0,16.226,7.24,16.226,16.226
		c0,8.986-7.24,16.226-16.226,16.226s-16.226-7.24-16.226-16.226C62.061,250.053,69.366,242.812,78.287,242.812z"/>
</g>
<g>
</g>
<g>
</g>
<g>
</g>
<g>
</g>
<g>
</g>
<g>
</g>
<g>
</g>
<g>
</g>
<g>
</g>
<g>
</g>
<g>
</g>
<g>
</g>
<g>
</g>
<g>
</g>
<g>
</g>
</svg>
